<?xml version="1.0" encoding="UTF-8" standalone="no" ?>
<!DOCTYPE svg PUBLIC "-//W3C//DTD SVG 1.1//EN" "http://www.w3.org/Graphics/SVG/1.1/DTD/svg11.dtd">
<svg xmlns="http://www.w3.org/2000/svg" xmlns:xlink="http://www.w3.org/1999/xlink" version="1.1" width="24" height="24" viewBox="0 0 24 24" xml:space="preserve">
<desc>Created with Fabric.js 5.2.4</desc>
<defs>
</defs>
<rect x="0" y="0" width="100%" height="100%" fill="transparent"></rect>
<g transform="matrix(0 0 0 0 0 0)" id="b8a497cf-4f1c-4a04-8dd2-f00c01b10d46"  >
</g>
<g transform="matrix(1 0 0 1 12 12)" id="2a125ba6-a4e9-41c4-b2ee-c56258eb9944"  >
<rect style="stroke: none; stroke-width: 1; stroke-dasharray: none; stroke-linecap: butt; stroke-dashoffset: 0; stroke-linejoin: miter; stroke-miterlimit: 4; fill: rgb(255,255,255); fill-rule: nonzero; opacity: 1;" vector-effect="non-scaling-stroke"  x="-12" y="-12" rx="0" ry="0" width="24" height="24" />
</g>
<g transform="matrix(0.77 0 0 0.77 11.94 11.94)"  >
<g style="" vector-effect="non-scaling-stroke"   >
		<g transform="matrix(1 0 0 1 -3.68 -1.73)"  >
<path style="stroke: none; stroke-width: 1; stroke-dasharray: none; stroke-linecap: butt; stroke-dashoffset: 0; stroke-linejoin: miter; stroke-miterlimit: 4; fill: rgb(0,0,0); fill-rule: nonzero; opacity: 1;" vector-effect="non-scaling-stroke"  transform=" translate(-12.32, -14.27)" d="M 10.4714 12.3566 L 10.4714 16.202 C 10.6322 16.2145 10.7808 16.2207 10.9171 16.2206 L 11.53 16.2206 C 11.9796 16.2272 12.4276 16.1646 12.8582 16.0349 C 13.2263 15.925600000000001 13.5553 15.7127 13.8059 15.421800000000001 C 14.065299999999999 15.081700000000001 14.1938 14.6598 14.168 14.2329 C 14.1779 13.873600000000001 14.084399999999999 13.519 13.8986 13.211200000000002 C 13.7034 12.913700000000002 13.4213 12.683400000000002 13.0906 12.551800000000002 C 12.6588 12.383900000000002 12.1975 12.304900000000002 11.7345 12.319500000000001 C 11.4373 12.319500000000001 11.1742 12.322600000000001 10.9451 12.328800000000001 C 10.7156 12.3352 10.5577 12.344500000000002 10.4714 12.3566 z" stroke-linecap="round" />
</g>
		<g transform="matrix(1 0 0 1 0 0)"  >
<path style="stroke: none; stroke-width: 1; stroke-dasharray: none; stroke-linecap: butt; stroke-dashoffset: 0; stroke-linejoin: miter; stroke-miterlimit: 4; fill: rgb(0,0,0); fill-rule: evenodd; opacity: 1;" vector-effect="non-scaling-stroke"  transform=" translate(-16, -16)" d="M 32 0 L 0 0 L 0 32 L 32 32 z M 19.5245 15.2826 L 18.2157 15.244 C 18.128899999999998 15.2317 18.0855 15.1882 18.0855 15.113999999999999 L 18.0855 13.484699999999998 C 18.083 13.466999999999999 18.084699999999998 13.448999999999998 18.0903 13.432099999999998 C 18.096 13.415099999999999 18.1055 13.399799999999999 18.1181 13.387099999999998 C 18.130799999999997 13.374499999999998 18.146099999999997 13.364999999999998 18.1631 13.359399999999999 C 18.18 13.3537 18.198 13.352099999999998 18.215700000000002 13.3546 L 19.524500000000003 13.369 L 19.524500000000003 13.3326 C 19.521800000000002 12.7768 19.5527 12.221499999999999 19.617100000000004 11.6695 C 19.673800000000004 11.3448 19.773800000000005 11.0293 19.914500000000004 10.7313 C 20.154700000000005 10.232299999999999 20.519300000000005 9.8037 20.973300000000005 9.48664 C 21.515500000000007 9.14107 22.151600000000006 8.97233 22.793800000000005 9.0037 C 22.973800000000004 9.00276 23.153700000000004 9.01205 23.332600000000003 9.03152 C 23.5147 9.04723 23.694700000000005 9.08149 23.8698 9.133750000000001 C 23.9085 9.146740000000001 23.942 9.17178 23.965400000000002 9.205200000000001 C 23.988800000000005 9.238620000000003 24.0009 9.278660000000002 23.999900000000004 9.319460000000001 L 23.999900000000004 11.158600000000002 C 23.999900000000004 11.245400000000002 23.950300000000002 11.2763 23.851100000000002 11.251500000000002 C 23.764400000000002 11.239200000000002 23.561600000000002 11.232900000000003 23.462600000000002 11.232900000000003 L 23.1841 11.232900000000003 C 22.9324 11.229000000000003 22.6823 11.273200000000003 22.447200000000002 11.362900000000003 C 22.273400000000002 11.457200000000004 22.141000000000002 11.612900000000003 22.0757 11.799500000000004 C 21.985500000000002 12.065400000000004 21.9445 12.345500000000003 21.954900000000002 12.626200000000004 L 21.954900000000002 13.369000000000005 L 23.770000000000003 13.369000000000005 C 23.844000000000005 13.369000000000005 23.890600000000003 13.381300000000005 23.909200000000002 13.406100000000006 C 23.930100000000003 13.439300000000006 23.9399 13.478400000000006 23.9372 13.517500000000005 L 23.9372 15.152600000000005 C 23.9372 15.239400000000005 23.8814 15.282700000000006 23.77 15.282600000000006 L 21.9549 15.282600000000006 L 21.9694 22.178500000000007 C 21.969 22.217300000000005 21.959500000000002 22.25550000000001 21.9417 22.289900000000006 C 21.9231 22.327100000000005 21.8767 22.345700000000008 21.8022 22.345700000000008 L 19.6876 22.345700000000008 C 19.5883 22.345700000000008 19.539 22.289900000000006 19.539 22.178500000000007 z M 8 22.128 L 8 10.2575 C 8 10.171000000000001 8.03726 10.1275 8.11154 10.1275 C 8.30936 10.1275 8.45235 10.1246 8.72496 10.1182 C 8.99732 10.1121 9.2915 10.1059 9.6075 10.0997 C 9.92325 10.0936 10.2576 10.0873 10.6106 10.081100000000001 C 10.9636 10.074900000000001 11.3135 10.071800000000001 11.6601 10.071700000000002 C 12.4671 10.051000000000002 13.2716 10.170500000000002 14.0378 10.424800000000001 C 14.6189 10.621300000000002 15.148900000000001 10.945 15.5891 11.372200000000001 C 15.9623 11.742400000000002 16.250700000000002 12.189200000000001 16.4344 12.681700000000001 C 16.608 13.161100000000001 16.696 13.667300000000001 16.6943 14.177200000000001 C 16.7294 15.046600000000002 16.488799999999998 15.904800000000002 16.006899999999998 16.6293 C 15.545799999999998 17.2758 14.897399999999998 17.7653 14.149399999999998 18.0318 C 13.315599999999998 18.332 12.434699999999998 18.4799 11.548599999999999 18.4684 C 11.275999999999998 18.4684 11.0841 18.4653 10.972999999999999 18.4591 C 10.8614 18.453 10.694199999999999 18.4498 10.4714 18.4498 L 10.4714 22.1094 C 10.474599999999999 22.1321 10.472499999999998 22.1552 10.4653 22.177 C 10.457999999999998 22.1987 10.445799999999998 22.2185 10.429599999999999 22.2347 C 10.4133 22.2509 10.3936 22.2632 10.371799999999999 22.2704 C 10.3501 22.2777 10.326899999999998 22.279799999999998 10.304199999999998 22.2766 L 8.130189999999999 22.2766 C 8.043389999999999 22.2766 7.999999999999999 22.226999999999997 7.999999999999999 22.128 z" stroke-linecap="round" />
</g>
</g>
</g>
</svg>